<svg xmlns="http://www.w3.org/2000/svg" width="819" height="201" viewBox="0 0 819 201">
<g>
<path d="M 207.33,144.57 L 206.31,145.50 L 204.41,147.25 L 203.76,147.88 L 201.56,149.86 L 200.36,150.80 L 199.89,151.08 L 199.03,151.53 L 198.71,151.57 L 198.15,151.55 L 197.96,151.36 L 197.94,151.33 L 198.28,151.28 L 198.49,151.23 L 199.10,150.91 L 199.43,150.73 L 200.28,150.16 L 200.74,149.85 L 201.82,149.05 L 202.39,148.62 L 203.69,147.58 L 204.37,147.03 L 205.88,145.77 L 206.67,145.12 L 208.09,143.89 M 178.52,134.93 L 178.82,135.02 L 180.16,135.57 L 180.89,136.12 L 182.35,137.39 L 182.98,138.25 L 184.40,140.17 L 185.73,141.94 L 186.53,142.99 L 187.86,144.72 L 185.62,141.97 L 184.51,140.63 L 182.56,138.45 L 181.64,137.46 L 180.20,136.10 L 179.87,135.82 L 179.35,135.44 L 178.76,135.16 L 178.37,135.10 L 177.82,135.11 L 177.57,135.15 L 177.33,135.42 L 177.26,135.59 L 177.38,136.19 L 177.48,136.55 L 178.01,137.56 L 178.32,138.13 L 179.00,139.18 L 178.73,138.78 L 178.44,138.36 L 177.93,137.57 L 177.76,137.29 L 177.48,136.80 L 177.43,136.69 L 177.23,135.73 L 177.31,135.28 L 177.45,135.15 L 177.77,134.94 L 178.01,134.92 M 237.68,119.07 L 238.00,119.81 L 238.00,119.86 L 237.57,120.38 L 237.29,120.70 L 236.34,121.68 L 235.82,122.22 L 234.44,123.59 L 233.70,124.32 L 231.97,126.03 L 231.06,126.91 L 229.04,128.87 L 227.99,129.87 L 225.76,132.02 L 223.48,134.19 L 218.60,138.81 L 216.16,141.12 L 214.31,142.85 L 215.67,141.54 L 217.43,139.83 L 220.81,136.53 L 222.30,135.06 L 225.13,132.23 L 226.34,131.01 L 228.60,128.68 L 229.50,127.71 L 231.16,125.91 L 231.76,125.22 L 232.79,123.98 L 233.06,123.57 L 233.44,122.91 L 233.38,122.81 L 232.91,122.69 L 232.39,122.85 L 232.06,123.03 L 231.82,123.18 L 232.45,122.62 L 233.41,121.73 L 234.95,120.45 L 235.65,119.90 L 236.68,119.28 L 237.13,119.05 M 224.78,129.23 L 222.48,131.25 L 221.24,132.33 L 218.74,134.51 L 217.50,135.58 L 214.51,138.21 L 216.14,136.76 L 217.75,135.34 L 220.61,132.83 L 221.28,132.25 L 222.49,131.19 L 223.07,130.69 L 224.06,129.84 L 224.52,129.44 L 225.00,129.03 Z" fill="rgba(230,237,243,1)"/>
<path d="M 194.27,167.72 L 193.89,167.12 L 192.69,165.31 L 192.03,164.32 L 190.43,161.95 L 185.08,154.18 L 178.66,145.00 L 122.22,145.00 L 120.20,145.00 L 116.36,145.00 L 114.48,145.01 L 110.91,145.01 L 107.40,145.02 L 101.15,145.03 L 98.15,145.04 L 92.85,145.04 L 90.32,145.04 L 85.90,145.01 L 83.80,144.99 L 80.21,144.93 L 78.51,144.89 L 75.67,144.78 L 74.33,144.71 L 72.17,144.52 L 71.17,144.42 L 69.63,144.16 L 68.92,144.01 L 67.93,143.65 L 67.49,143.46 L 66.97,142.98 L 66.77,142.73 L 66.66,142.14 L 66.66,141.83 L 66.90,141.10 L 67.05,140.71 L 67.57,139.83 L 67.86,139.37 L 68.59,138.32 L 71.24,134.50 L 75.77,127.50 L 128.64,127.57 L 181.50,127.64 L 189.21,138.98 L 190.27,140.54 L 192.28,143.46 L 193.26,144.87 L 194.96,147.29 L 195.75,148.41 L 196.95,150.06 L 197.21,150.41 L 197.60,150.92 L 197.96,151.36 L 198.15,151.55 L 198.71,151.57 L 199.03,151.53 L 199.89,151.08 L 200.36,150.80 L 201.56,149.86 L 203.76,147.88 L 204.41,147.25 L 206.31,145.50 L 207.33,144.57 L 209.75,142.39 L 217.50,135.58 L 218.74,134.51 L 221.24,132.33 L 222.48,131.25 L 224.78,129.23 L 225.89,128.26 L 227.72,126.62 L 228.14,126.24 L 228.84,125.61 L 229.66,124.86 L 230.09,124.45 L 230.93,123.78 L 231.34,123.47 L 232.06,123.03 L 232.39,122.85 L 232.91,122.69 L 233.38,122.81 L 233.44,122.91 L 233.06,123.57 L 232.79,123.98 L 231.76,125.22 L 231.16,125.91 L 229.50,127.71 L 228.60,128.68 L 226.34,131.01 L 225.13,132.23 L 222.30,135.06 L 220.81,136.53 L 217.43,139.83 L 215.67,141.54 L 211.77,145.29 L 205.35,151.38 L 198.21,158.13 L 191.77,149.81 L 190.00,147.53 L 186.53,142.99 L 185.73,141.94 L 184.40,140.17 L 182.98,138.25 L 182.35,137.39 L 180.89,136.12 L 180.16,135.57 L 178.82,135.02 L 178.52,134.93 L 178.01,134.92 L 177.77,134.94 L 177.45,135.15 L 177.31,135.28 L 177.23,135.73 L 177.43,136.69 L 177.48,136.80 L 177.76,137.29 L 177.93,137.57 L 178.44,138.36 L 178.73,138.78 L 179.45,139.83 L 179.83,140.38 L 180.72,141.66 L 181.65,142.97 L 183.92,146.11 L 187.71,151.23 L 197.35,164.10 L 203.42,158.20 L 206.06,155.64 L 211.20,150.68 L 213.75,148.24 L 218.61,143.60 L 220.99,141.32 L 225.45,137.12 L 227.61,135.08 L 231.53,131.42 L 233.41,129.68 L 236.67,126.69 L 237.44,125.99 L 238.83,124.74 L 239.50,124.14 L 240.68,123.09 L 241.24,122.59 L 242.20,121.77 L 242.65,121.39 L 243.37,120.80 L 243.69,120.54 L 244.16,120.20 L 244.54,120.00 L 244.70,120.00 L 245.16,120.21 L 245.41,120.34 L 246.00,120.76 L 246.61,121.21 L 247.94,122.46 L 248.58,123.10 L 249.53,124.28 L 249.72,124.55 L 249.93,124.97 L 249.92,125.36 L 248.42,126.69 L 245.62,129.16 L 244.25,130.37 L 241.68,132.64 L 240.43,133.75 L 238.08,135.82 L 236.94,136.84 L 234.80,138.73 L 232.70,140.59 L 229.06,143.83 L 227.31,145.38 L 224.26,148.11 L 222.79,149.42 L 220.18,151.77 L 218.92,152.91 L 216.62,155.00 L 210.20,160.91 L 208.78,162.22 L 206.09,164.69 L 204.78,165.87 L 202.50,167.90 L 201.97,168.37 L 201.03,169.19 L 200.59,169.58 L 199.84,170.21 L 199.49,170.50 L 198.97,170.92 L 198.47,171.28 L 198.22,171.42 L 197.66,171.40 L 197.38,171.34 L 196.74,170.88 L 196.40,170.60 L 195.63,169.68 L 195.22,169.15 M 255.38,134.12 L 256.29,133.19 L 257.67,131.94 L 258.34,131.39 L 259.71,130.73 L 260.46,130.45 L 262.46,130.14 L 263.03,130.07 L 264.39,129.96 L 266.85,129.80 L 267.91,129.74 L 269.98,129.55 L 270.99,129.45 L 272.81,129.19 L 273.67,129.06 L 275.03,128.78 L 276.33,128.35 L 276.73,128.13 L 277.12,127.74 L 277.25,127.55 L 277.03,127.10 L 276.83,126.86 L 275.90,126.23 L 273.57,124.93 L 272.31,124.26 L 270.34,123.01 L 269.93,122.73 L 269.36,122.27 L 269.00,121.81 L 269.00,121.71 L 269.19,121.32 L 269.31,121.09 L 269.70,120.50 L 271.39,118.34 L 273.77,115.56 L 279.64,119.20 L 280.31,119.62 L 281.44,120.31 L 281.97,120.63 L 282.87,121.14 L 283.71,121.60 L 284.85,122.03 L 285.37,122.17 L 286.13,122.03 L 287.23,121.29 L 287.47,121.07 L 288.07,120.24 L 288.38,119.77 L 289.08,118.54 L 291.09,114.11 L 291.77,112.31 L 292.63,108.56 L 292.97,106.68 L 293.15,102.96 L 293.15,101.13 L 292.64,97.71 L 291.10,93.19 L 290.57,92.16 L 289.21,90.17 L 288.47,89.19 L 286.75,87.34 L 285.85,86.43 L 283.84,84.76 L 282.81,83.95 L 280.59,82.50 L 279.46,81.81 L 277.10,80.63 L 275.91,80.08 L 273.48,79.21 L 272.27,78.82 L 269.85,78.31 L 266.29,78.00 L 265.87,78.00 L 264.86,77.82 L 264.34,77.70 L 263.19,77.32 L 262.01,76.89 L 259.56,75.63 L 258.38,74.96 L 256.39,73.47 L 255.95,73.10 L 255.27,72.39 L 254.62,71.40 L 254.54,71.21 L 255.07,70.91 L 255.45,70.77 L 256.95,70.58 L 257.82,70.50 L 260.34,70.42 L 261.04,70.40 L 262.63,70.39 L 265.34,70.40 L 266.57,70.41 L 268.69,70.45 L 269.70,70.47 L 271.43,70.54 L 272.26,70.58 L 273.69,70.69 L 274.37,70.76 L 275.58,70.93 L 276.76,71.12 L 278.82,71.75 L 282.20,73.17 L 283.94,73.99 L 287.31,76.17 L 288.96,77.34 L 292.01,80.08 L 293.48,81.51 L 296.01,84.62 L 299.01,89.51 L 299.58,90.69 L 300.47,93.22 L 300.87,94.51 L 301.42,97.21 L 301.66,98.57 L 301.88,101.37 L 301.95,102.78 L 301.85,105.61 L 301.75,107.03 L 301.33,109.84 L 301.07,111.24 L 300.33,113.96 L 299.91,115.30 L 298.85,117.87 L 296.91,121.48 L 296.50,122.13 L 295.77,123.38 L 295.42,123.99 L 294.88,125.06 L 294.63,125.56 L 294.32,126.32 L 294.20,127.00 L 294.24,127.11 L 294.73,127.63 L 295.03,127.93 L 295.95,128.77 L 296.46,129.21 L 297.69,130.25 L 299.75,131.91 L 300.47,132.48 L 301.79,133.60 L 302.42,134.14 L 303.46,135.12 L 303.93,135.58 L 304.59,136.32 L 305.00,137.02 L 305.00,137.16 L 304.48,137.40 L 304.14,137.52 L 303.06,137.71 L 302.46,137.80 L 300.97,137.92 L 298.40,138.00 L 297.13,138.00 L 295.08,137.90 L 294.12,137.83 L 292.57,137.56 L 291.84,137.40 L 290.59,136.91 L 288.84,135.89 L 285.87,133.77 L 280.35,135.89 L 279.23,136.31 L 277.10,136.94 L 276.02,137.22 L 273.63,137.59 L 272.35,137.74 L 269.23,137.91 L 268.38,137.94 L 266.46,137.98 L 263.21,138.00 L 251.59,138.00 L 255.38,134.12 M 471.57,136.43 L 471.14,136.00 L 470.46,135.04 L 470.00,133.90 L 470.00,133.77 L 470.16,133.13 L 470.27,132.75 L 470.63,131.68 L 470.83,131.09 L 471.36,129.63 L 471.65,128.86 L 472.33,127.08 L 472.69,126.16 L 473.49,124.11 L 473.90,123.06 L 474.81,120.81 L 475.73,118.51 L 477.78,113.54 L 478.82,111.04 L 480.95,105.99 L 482.02,103.50 L 484.05,98.84 L 484.54,97.72 L 485.47,95.63 L 485.93,94.62 L 486.77,92.79 L 487.17,91.91 L 487.90,90.39 L 488.82,88.53 L 489.55,87.14 L 491.03,84.55 L 491.77,83.29 L 493.28,80.96 L 494.04,79.83 L 495.55,77.80 L 496.30,76.82 L 497.78,75.11 L 498.51,74.30 L 499.94,72.94 L 500.64,72.31 L 501.99,71.35 L 502.64,70.91 L 503.87,70.36 L 505.57,70.04 L 506.37,70.05 L 508.31,70.43 L 510.79,71.34 L 511.23,71.59 L 512.35,72.55 L 512.95,73.11 L 514.32,74.61 L 515.03,75.42 L 516.59,77.36 L 517.38,78.37 L 519.02,80.63 L 520.68,82.94 L 523.96,88.08 L 528.20,95.68 L 528.74,96.75 L 529.61,98.55 L 530.02,99.40 L 530.68,100.87 L 531.29,102.28 L 531.99,104.82 L 532.14,105.48 L 532.35,106.93 L 532.45,107.70 L 532.58,109.46 L 532.64,110.40 L 532.73,112.64 L 532.85,116.71 L 532.90,118.41 L 532.94,121.79 L 532.95,123.44 L 532.91,126.46 L 532.89,127.89 L 532.78,130.21 L 532.75,130.73 L 532.68,131.58 L 532.56,132.53 L 532.36,133.58 L 531.64,135.22 L 531.23,135.94 L 530.19,136.86 L 529.63,137.22 L 528.38,137.34 L 526.39,136.54 L 525.98,136.24 L 525.39,135.39 L 525.13,134.88 L 524.77,133.21 L 524.69,132.72 L 524.56,131.49 L 524.50,130.82 L 524.40,129.21 L 524.35,128.34 L 524.26,126.27 L 524.15,122.58 L 523.79,110.00 L 506.52,110.00 L 504.94,110.00 L 502.14,110.02 L 500.80,110.03 L 498.45,110.07 L 497.32,110.09 L 495.39,110.15 L 494.47,110.19 L 492.92,110.28 L 492.20,110.33 L 491.02,110.45 L 490.47,110.52 L 489.62,110.67 L 489.24,110.75 L 488.71,110.93 L 488.22,111.25 L 488.15,111.34 L 487.92,111.73 L 487.79,111.95 L 487.46,112.60 L 487.10,113.31 L 486.13,115.36 L 485.61,116.47 L 484.42,119.13 L 482.52,123.50 L 481.96,124.80 L 480.95,127.11 L 480.45,128.22 L 479.55,130.16 L 479.11,131.09 L 478.31,132.67 L 477.92,133.42 L 477.21,134.66 L 476.87,135.24 L 476.24,136.16 L 475.93,136.58 L 475.37,137.20 L 475.10,137.47 L 474.61,137.80 L 473.92,138.00 L 473.70,138.00 L 472.91,137.54 L 472.48,137.25 M 521.67,100.66 L 521.71,100.63 L 521.61,100.31 L 521.53,100.12 L 521.23,99.52 L 521.05,99.19 L 520.57,98.35 L 520.31,97.91 L 519.68,96.88 L 519.01,95.80 L 517.37,93.24 L 516.51,91.92 L 514.63,89.13 L 513.69,87.73 L 511.83,85.04 L 510.92,83.74 L 509.29,81.49 L 508.91,80.97 L 508.23,80.07 L 507.90,79.65 L 507.36,78.98 L 507.11,78.68 L 506.73,78.28 L 506.39,78.03 L 506.32,78.02 L 506.03,78.25 L 505.87,78.40 L 505.44,78.91 L 504.96,79.47 L 503.65,81.26 L 502.95,82.24 L 501.32,84.62 L 500.49,85.86 L 498.76,88.53 L 497.89,89.87 L 496.25,92.53 L 495.45,93.83 L 494.08,96.16 L 493.46,97.25 L 492.57,98.94 L 492.39,99.31 L 492.15,99.88 L 492.00,100.44 L 492.00,100.53 L 492.23,100.68 L 492.38,100.76 L 492.91,100.89 L 493.21,100.95 L 494.05,101.05 L 494.50,101.09 L 495.64,101.17 L 496.25,101.20 L 497.71,101.24 L 498.47,101.26 L 500.24,101.27 L 501.16,101.28 L 503.23,101.26 L 506.71,101.21 L 508.73,101.17 L 512.44,101.08 L 514.21,101.03 L 517.17,100.93 L 517.85,100.91 L 519.01,100.86 L 519.55,100.83 L 520.41,100.79 L 520.80,100.76 L 521.32,100.72 L 521.53,100.70 M 595.08,136.35 L 594.92,136.23 L 594.34,135.46 L 594.00,134.98 L 593.10,133.53 L 592.61,132.73 L 591.42,130.66 L 590.80,129.55 L 589.36,126.92 L 588.61,125.54 L 586.95,122.42 L 586.09,120.80 L 584.24,117.23 L 583.29,115.39 L 581.28,111.44 L 578.13,105.14 L 576.10,101.07 L 572.29,93.46 L 571.38,91.63 L 569.66,88.22 L 568.83,86.56 L 567.31,83.56 L 566.57,82.12 L 565.29,79.61 L 564.69,78.42 L 563.69,76.49 L 563.23,75.61 L 562.57,74.34 L 561.98,73.30 L 561.52,72.57 L 561.14,71.51 L 561.04,71.05 L 561.40,70.47 L 561.68,70.24 L 562.83,70.12 L 565.47,70.43 L 566.14,70.55 L 567.28,70.94 L 567.83,71.16 L 568.79,71.79 L 569.25,72.14 L 570.13,73.08 L 571.45,74.93 L 571.69,75.30 L 572.41,76.57 L 572.81,77.28 L 573.81,79.15 L 574.35,80.15 L 575.59,82.52 L 576.24,83.76 L 577.67,86.54 L 578.41,87.97 L 579.99,91.07 L 580.80,92.65 L 582.47,95.98 L 584.17,99.34 L 587.65,106.34 L 589.38,109.82 L 592.65,116.49 L 593.44,118.10 L 594.91,121.14 L 595.63,122.62 L 596.92,125.31 L 597.54,126.61 L 598.60,128.87 L 599.10,129.94 L 599.89,131.68 L 600.24,132.47 L 600.71,133.59 L 601.00,134.46 L 601.00,135.10 L 600.43,136.08 L 600.07,136.51 L 598.98,137.02 L 598.40,137.20 L 597.07,137.15 L 596.39,137.05 M 322.89,135.11 L 320.50,133.18 L 320.50,103.62 L 320.50,101.93 L 320.50,98.83 L 320.50,97.32 L 320.51,94.57 L 320.51,93.24 L 320.52,90.82 L 320.53,89.65 L 320.55,87.54 L 320.56,86.52 L 320.58,84.69 L 320.60,83.81 L 320.63,82.24 L 320.67,80.74 L 320.78,78.42 L 320.84,77.36 L 321.00,75.78 L 321.09,75.07 L 321.32,74.07 L 321.44,73.62 L 321.74,72.99 L 322.29,72.29 L 322.69,71.89 L 323.87,71.33 L 324.23,71.21 L 325.20,71.02 L 325.74,70.93 L 327.13,70.78 L 327.90,70.72 L 329.84,70.63 L 330.88,70.58 L 333.48,70.52 L 334.87,70.50 L 338.24,70.46 L 344.29,70.43 L 346.19,70.43 L 349.55,70.43 L 351.16,70.44 L 353.98,70.47 L 355.32,70.49 L 357.64,70.55 L 358.73,70.58 L 360.59,70.67 L 361.47,70.72 L 362.91,70.85 L 363.59,70.91 L 364.67,71.07 L 365.16,71.16 L 365.92,71.36 L 366.75,71.71 L 367.43,72.11 L 368.31,72.96 L 368.67,73.39 L 368.90,74.31 L 368.93,74.77 L 368.52,75.76 L 367.17,77.35 L 366.78,77.70 L 365.57,78.20 L 365.21,78.31 L 364.26,78.49 L 363.74,78.57 L 362.42,78.70 L 361.71,78.76 L 359.94,78.85 L 358.99,78.89 L 356.68,78.94 L 355.45,78.96 L 352.51,78.99 L 347.30,79.00 L 329.27,79.00 L 328.77,89.25 L 328.70,90.66 L 328.60,93.31 L 328.56,94.58 L 328.53,96.78 L 328.52,97.80 L 328.54,99.30 L 328.65,100.50 L 328.68,100.58 L 329.01,100.72 L 329.21,100.79 L 329.88,100.91 L 330.26,100.97 L 331.24,101.08 L 331.78,101.13 L 333.06,101.22 L 333.74,101.26 L 335.31,101.33 L 336.12,101.36 L 337.94,101.40 L 344.26,101.45 L 346.36,101.45 L 350.36,101.50 L 352.29,101.53 L 355.69,101.65 L 356.48,101.68 L 357.88,101.76 L 358.55,101.80 L 359.67,101.88 L 360.20,101.93 L 360.99,102.03 L 361.75,102.18 L 362.39,102.40 L 363.27,103.34 L 363.65,103.86 L 363.98,105.17 L 364.08,105.83 L 363.81,107.17 L 362.68,108.85 L 362.58,108.94 L 362.10,109.10 L 361.81,109.18 L 360.98,109.33 L 360.52,109.40 L 359.35,109.54 L 358.73,109.60 L 357.27,109.73 L 356.50,109.79 L 354.74,109.89 L 353.84,109.94 L 351.82,110.03 L 344.93,110.22 L 328.50,110.50 L 328.50,119.50 L 328.50,128.50 L 347.39,129.00 L 349.46,129.05 L 352.97,129.16 L 354.63,129.21 L 357.37,129.32 L 358.66,129.38 L 360.75,129.50 L 361.72,129.56 L 363.24,129.71 L 363.94,129.79 L 365.01,129.98 L 365.49,130.08 L 366.19,130.31 L 367.39,131.25 L 367.79,131.89 L 367.99,133.00 L 367.39,134.75 L 367.14,135.14 L 366.16,135.69 L 365.84,135.81 L 364.93,136.01 L 364.43,136.10 L 363.06,136.25 L 362.31,136.32 L 360.38,136.44 L 359.33,136.49 L 356.72,136.57 L 355.32,136.61 L 351.91,136.68 L 345.78,136.77 L 343.40,136.80 L 339.43,136.84 L 337.56,136.86 L 334.49,136.87 L 333.06,136.87 L 330.77,136.83 L 329.70,136.80 L 328.03,136.70 L 327.27,136.65 L 326.09,136.49 L 325.55,136.40 L 324.72,136.16 L 323.96,135.90 M 388.56,134.78 L 388.39,134.54 L 388.11,133.90 L 387.98,133.54 L 387.75,132.55 L 387.65,131.99 L 387.48,130.51 L 387.40,129.70 L 387.28,127.59 L 387.23,126.45 L 387.14,123.58 L 387.11,122.04 L 387.06,118.27 L 387.05,117.27 L 387.03,115.06 L 387.02,113.93 L 387.01,111.46 L 387.01,110.18 L 387.00,107.42 L 387.00,102.93 L 387.00,101.19 L 387.00,98.00 L 387.00,96.45 L 387.01,93.63 L 387.01,92.27 L 387.02,89.81 L 387.03,88.62 L 387.05,86.48 L 387.06,85.45 L 387.08,83.62 L 387.09,82.73 L 387.13,81.17 L 387.17,79.67 L 387.28,77.40 L 387.34,76.36 L 387.52,74.85 L 387.61,74.18 L 387.86,73.24 L 387.99,72.82 L 388.32,72.25 L 388.92,71.58 L 389.30,71.23 L 389.95,70.77 L 390.27,70.58 L 390.86,70.41 L 391.16,70.37 L 391.80,70.48 L 392.90,70.95 L 393.15,71.08 L 393.57,71.39 L 393.76,71.57 L 394.08,72.13 L 394.22,72.46 L 394.45,73.48 L 394.56,74.07 L 394.72,75.75 L 394.80,76.69 L 394.91,79.25 L 394.94,79.96 L 394.98,81.56 L 395.00,82.40 L 395.04,84.30 L 395.06,85.29 L 395.10,87.50 L 395.11,88.65 L 395.14,91.20 L 395.16,92.53 L 395.19,95.45 L 395.23,100.28 L 395.50,128.50 L 410.65,128.78 L 412.75,128.81 L 416.27,128.91 L 417.93,128.97 L 420.62,129.13 L 421.88,129.22 L 423.83,129.47 L 424.73,129.61 L 426.03,129.97 L 426.60,130.17 L 427.33,130.69 L 427.63,130.96 L 427.87,131.65 L 427.94,132.02 L 427.77,132.92 L 427.17,134.53 L 426.04,137.00 L 408.08,137.00 L 405.90,137.00 L 402.30,136.99 L 400.61,136.99 L 397.89,136.96 L 396.62,136.94 L 394.64,136.87 L 393.73,136.82 L 392.35,136.70 L 391.72,136.63 L 390.80,136.43 L 390.39,136.32 L 389.79,136.03 L 389.25,135.73 M 443.20,135.80 L 443.09,135.69 L 442.90,135.13 L 442.80,134.80 L 442.64,133.75 L 442.57,133.17 L 442.44,131.59 L 442.37,130.73 L 442.27,128.58 L 442.22,127.43 L 442.15,124.66 L 442.11,123.20 L 442.06,119.77 L 442.04,117.97 L 442.02,113.84 L 442.00,106.80 L 442.00,79.00 L 433.00,79.00 L 432.03,79.00 L 430.37,78.98 L 429.58,78.97 L 428.24,78.93 L 426.98,78.87 L 425.22,78.63 L 424.43,78.49 L 423.32,78.01 L 421.93,76.93 L 421.46,76.46 L 420.86,75.75 L 420.61,75.42 L 420.42,74.84 L 420.38,74.54 L 420.59,73.90 L 421.30,72.68 L 421.65,72.15 L 422.56,71.44 L 422.86,71.29 L 423.72,71.04 L 424.21,70.93 L 425.58,70.76 L 426.34,70.68 L 428.38,70.56 L 429.50,70.51 L 432.39,70.43 L 433.17,70.41 L 434.92,70.37 L 435.83,70.36 L 437.85,70.32 L 438.89,70.31 L 441.20,70.28 L 445.02,70.23 L 447.36,70.20 L 451.37,70.17 L 453.27,70.15 L 456.48,70.15 L 458.00,70.16 L 460.51,70.19 L 461.69,70.22 L 463.61,70.30 L 464.50,70.34 L 465.92,70.47 L 466.57,70.54 L 467.59,70.73 L 469.65,71.50 L 470.35,71.97 L 471.27,72.88 L 471.64,73.35 L 471.89,74.28 L 471.93,74.76 L 471.52,75.75 L 470.17,77.35 L 469.82,77.67 L 468.86,78.15 L 468.31,78.36 L 466.81,78.66 L 465.97,78.78 L 463.70,78.92 L 463.07,78.95 L 461.63,78.98 L 459.17,79.00 L 450.00,79.00 L 450.00,106.07 L 450.00,108.16 L 449.98,112.07 L 449.97,113.98 L 449.93,117.49 L 449.90,119.20 L 449.84,122.28 L 449.81,123.77 L 449.72,126.40 L 449.68,127.65 L 449.57,129.78 L 449.52,130.78 L 449.40,132.38 L 449.33,133.12 L 449.19,134.16 L 448.96,135.07 L 448.67,135.61 L 447.83,136.35 L 447.37,136.67 L 446.32,136.93 L 445.79,136.99 L 444.70,136.75 L 444.16,136.57 M 646.20,135.80 L 646.09,135.69 L 645.90,135.11 L 645.80,134.75 L 645.64,133.64 L 645.56,133.02 L 645.43,131.33 L 645.37,130.41 L 645.27,128.10 L 645.22,126.87 L 645.15,123.88 L 645.11,122.30 L 645.06,118.59 L 645.04,116.64 L 645.02,112.16 L 645.00,104.52 L 645.00,102.92 L 645.00,99.96 L 645.00,98.52 L 645.01,95.86 L 645.02,94.57 L 645.03,92.20 L 645.04,91.04 L 645.06,88.94 L 645.08,86.90 L 645.14,83.55 L 645.18,81.98 L 645.28,79.48 L 645.34,78.32 L 645.48,76.52 L 645.56,75.70 L 645.75,74.47 L 645.86,73.91 L 646.11,73.10 L 646.56,72.22 L 647.02,71.56 L 647.95,70.70 L 648.42,70.35 L 649.38,70.10 L 649.87,70.05 L 650.89,70.42 L 652.51,71.65 L 652.69,71.84 L 653.00,72.33 L 653.15,72.62 L 653.38,73.44 L 653.48,73.91 L 653.63,75.25 L 653.70,76.00 L 653.79,78.04 L 653.82,79.16 L 653.84,82.07 L 653.84,82.86 L 653.84,84.63 L 653.83,85.56 L 653.81,87.61 L 653.80,88.68 L 653.76,91.04 L 653.74,92.26 L 653.70,94.95 L 653.67,96.34 L 653.61,99.38 L 653.51,104.36 L 653.47,106.49 L 653.37,110.61 L 653.32,112.64 L 653.22,116.48 L 653.17,118.35 L 653.06,121.83 L 653.01,123.51 L 652.91,126.52 L 652.86,127.97 L 652.76,130.44 L 652.71,131.60 L 652.61,133.45 L 652.57,134.28 L 652.48,135.41 L 652.37,136.21 L 652.19,136.51 L 651.28,136.84 L 650.77,136.97 L 649.51,136.96 L 648.87,136.92 L 647.63,136.60 L 647.05,136.41 M 686.20,135.80 L 686.09,135.69 L 685.90,135.13 L 685.80,134.80 L 685.64,133.75 L 685.57,133.17 L 685.44,131.59 L 685.37,130.73 L 685.27,128.58 L 685.22,127.43 L 685.15,124.66 L 685.11,123.20 L 685.06,119.77 L 685.04,117.97 L 685.02,113.84 L 685.00,106.80 L 685.00,79.00 L 675.50,79.00 L 674.48,79.00 L 672.73,78.98 L 671.90,78.97 L 670.50,78.93 L 669.84,78.90 L 668.73,78.82 L 668.20,78.77 L 667.33,78.64 L 666.51,78.50 L 665.37,78.04 L 664.00,77.00 L 663.44,76.44 L 662.70,75.57 L 662.40,75.16 L 662.14,74.46 L 662.07,74.11 L 662.25,73.37 L 662.98,72.00 L 663.08,71.84 L 663.45,71.57 L 663.68,71.45 L 664.38,71.23 L 664.78,71.12 L 665.90,70.95 L 666.52,70.86 L 668.16,70.72 L 669.05,70.66 L 671.30,70.55 L 672.51,70.50 L 675.46,70.41 L 677.04,70.37 L 680.79,70.30 L 687.43,70.20 L 689.01,70.18 L 691.89,70.15 L 693.29,70.13 L 695.84,70.12 L 697.08,70.11 L 699.32,70.11 L 700.41,70.12 L 702.36,70.14 L 704.24,70.17 L 707.22,70.30 L 708.58,70.38 L 710.65,70.64 L 711.59,70.78 L 712.91,71.19 L 713.50,71.41 L 714.23,71.99 L 714.54,72.30 L 714.85,73.08 L 715.00,74.50 L 715.00,74.94 L 714.86,75.71 L 714.77,76.08 L 714.41,76.70 L 714.20,76.99 L 713.60,77.48 L 713.26,77.71 L 712.36,78.08 L 711.87,78.25 L 710.64,78.51 L 709.98,78.63 L 708.39,78.80 L 707.54,78.87 L 705.55,78.95 L 702.07,79.00 L 693.00,79.00 L 693.00,106.80 L 693.00,108.59 L 693.00,111.85 L 692.99,113.43 L 692.98,116.30 L 692.98,117.69 L 692.96,120.20 L 692.94,121.41 L 692.91,123.58 L 692.89,124.62 L 692.83,126.47 L 692.81,127.36 L 692.73,128.92 L 692.65,130.41 L 692.42,132.62 L 692.29,133.61 L 691.93,134.98 L 691.73,135.58 L 691.22,136.30 L 690.95,136.60 L 690.26,136.87 L 689.00,137.00 L 688.56,137.00 L 687.52,136.65 L 687.01,136.43 M 85.00,112.88 L 85.00,112.84 L 85.12,112.54 L 85.20,112.36 L 85.48,111.79 L 85.64,111.48 L 86.06,110.66 L 86.29,110.23 L 86.84,109.19 L 87.43,108.09 L 88.96,105.28 L 89.78,103.79 L 91.71,100.30 L 92.72,98.49 L 94.97,94.46 L 96.13,92.39 L 98.61,87.97 L 101.14,83.48 L 106.56,73.93 L 109.28,69.16 L 114.57,59.93 L 115.86,57.69 L 118.29,53.48 L 119.47,51.43 L 121.65,47.69 L 122.69,45.89 L 124.53,42.77 L 125.39,41.31 L 126.80,38.96 L 127.13,38.42 L 127.68,37.52 L 127.94,37.10 L 128.35,36.45 L 128.54,36.15 L 128.82,35.75 L 129.05,35.47 L 129.16,35.40 L 129.64,35.72 L 129.91,35.94 L 130.64,36.75 L 131.03,37.20 L 131.94,38.38 L 132.40,39.01 L 133.40,40.43 L 134.39,41.89 L 136.28,45.01 L 136.72,45.77 L 137.46,47.17 L 138.29,49.00 L 138.50,49.54 L 138.50,50.82 L 138.45,51.19 L 138.21,52.07 L 138.06,52.54 L 137.58,53.69 L 137.32,54.31 L 136.58,55.83 L 136.17,56.64 L 135.13,58.59 L 134.57,59.63 L 133.20,62.11 L 130.72,66.50 L 130.13,67.53 L 128.82,69.84 L 128.15,71.03 L 126.71,73.59 L 125.24,76.19 L 122.09,81.79 L 120.52,84.60 L 117.45,90.10 L 116.70,91.44 L 115.29,93.98 L 113.34,97.50 L 104.50,113.50 L 94.75,113.79 L 92.99,113.84 L 90.26,113.85 L 89.02,113.84 L 87.24,113.73 L 86.46,113.66 L 85.54,113.42 L 85.17,113.27 M 176.63,112.49 L 176.53,112.39 L 176.15,111.86 L 175.94,111.54 L 175.36,110.62 L 175.04,110.12 L 174.29,108.86 L 173.90,108.20 L 173.00,106.65 L 172.07,105.04 L 169.90,101.16 L 166.38,94.74 L 165.18,92.51 L 162.41,87.42 L 161.00,84.83 L 158.06,79.50 L 156.60,76.86 L 153.85,71.93 L 153.20,70.75 L 151.97,68.57 L 150.32,65.66 L 149.32,63.89 L 147.48,60.54 L 146.61,58.92 L 145.17,56.10 L 144.84,55.45 L 144.28,54.29 L 144.02,53.73 L 143.61,52.82 L 143.43,52.39 L 143.19,51.75 L 143.05,51.16 L 143.06,50.89 L 143.38,49.91 L 143.59,49.37 L 144.22,47.98 L 144.91,46.53 L 146.83,43.09 L 147.32,42.24 L 148.30,40.63 L 148.79,39.85 L 149.70,38.51 L 150.13,37.88 L 150.86,36.97 L 151.65,36.28 L 151.81,36.23 L 152.25,36.36 L 152.49,36.45 L 153.05,36.84 L 154.79,38.71 L 155.00,38.99 L 155.78,40.25 L 156.23,40.98 L 157.46,43.03 L 158.13,44.15 L 159.74,46.89 L 160.58,48.33 L 162.50,51.63 L 163.49,53.34 L 165.65,57.09 L 166.76,59.00 L 169.09,63.07 L 171.45,67.19 L 176.40,75.90 L 178.87,80.24 L 183.63,88.67 L 184.78,90.72 L 186.95,94.59 L 188.01,96.48 L 189.94,99.95 L 190.87,101.63 L 192.50,104.58 L 193.27,105.98 L 194.52,108.29 L 195.10,109.36 L 195.91,110.91 L 196.08,111.24 L 196.33,111.75 L 196.55,112.25 L 196.70,112.65 L 196.64,113.19 L 196.51,113.43 L 195.59,113.72 L 195.29,113.78 L 194.45,113.87 L 193.99,113.90 L 192.81,113.95 L 192.16,113.97 L 190.57,113.99 L 187.68,114.00 L 185.89,114.00 L 183.09,113.92 L 181.80,113.87 L 179.89,113.67 L 179.03,113.55 L 177.83,113.20 L 177.30,113.01 M 135.46,40.25 L 134.92,39.32 L 133.92,37.55 L 133.45,36.69 L 132.66,35.19 L 132.30,34.49 L 131.81,33.42 L 131.50,32.50 L 131.50,32.25 L 131.88,31.22 L 132.12,30.64 L 132.87,29.09 L 133.29,28.28 L 134.30,26.44 L 134.83,25.50 L 135.96,23.58 L 136.53,22.62 L 137.66,20.83 L 138.22,19.98 L 139.21,18.53 L 139.68,17.88 L 140.42,17.00 L 141.08,16.55 L 141.26,16.66 L 141.89,17.43 L 142.24,17.88 L 143.10,19.18 L 143.56,19.88 L 144.56,21.54 L 145.07,22.39 L 146.10,24.21 L 146.61,25.12 L 147.57,26.92 L 148.03,27.80 L 148.82,29.39 L 149.18,30.14 L 149.68,31.34 L 150.00,32.49 L 150.00,32.82 L 149.68,33.88 L 149.48,34.46 L 148.82,35.88 L 148.11,37.36 L 146.11,40.73 L 145.60,41.55 L 144.56,43.09 L 144.05,43.83 L 143.08,45.08 L 142.62,45.66 L 141.83,46.46 L 140.96,46.98 L 140.75,46.98 L 140.05,46.46 L 139.67,46.12 L 138.72,45.02 L 138.22,44.41 L 137.13,42.88 L 136.58,42.07 Z" fill="rgba(251,253,253,1)"/>
</g>
</svg>